Coordinates
version=1
nRows=9
nColumns=63
inDegrees=yes

Units are S.I. units (second, meters, Newtons, ...)
If the header above contains a line with 'inDegrees', this indicates whether rotational values are in degrees (yes) or radians (no).

endheader
time	pelvis_tilt	pelvis_list	pelvis_rotation	pelvis_tx	pelvis_ty	pelvis_tz	hip_flexion_r	hip_adduction_r	hip_rotation_r	knee_angle_r	knee_angle_r_beta	ankle_angle_r	subtalar_angle_r	mtp_angle_r	hip_flexion_l	hip_adduction_l	hip_rotation_l	knee_angle_l	knee_angle_l_beta	ankle_angle_l	subtalar_angle_l	mtp_angle_l	L5_S1_Flex_Ext	L5_S1_Lat_Bending	L5_S1_axial_rotation	L4_L5_Flex_Ext	L4_L5_Lat_Bending	L4_L5_axial_rotation	L3_L4_Flex_Ext	L3_L4_Lat_Bending	L3_L4_axial_rotation	L2_L3_Flex_Ext	L2_L3_Lat_Bending	L2_L3_axial_rotation	L1_L2_Flex_Ext	L1_L2_Lat_Bending	L1_L2_axial_rotation	L1_T12_Flex_Ext	L1_T12_Lat_Bending	L1_T12_axial_rotation	Abs_r3	Abs_r2	Abs_r1	Abs_t1	Abs_t2	neck_flexion	neck_bending	neck_rotation	arm_flex_r	arm_add_r	arm_rot_r	elbow_flex_r	pro_sup_r	wrist_flex_r	wrist_dev_r	arm_flex_l	arm_add_l	arm_rot_l	elbow_flex_l	pro_sup_l	wrist_flex_l	wrist_dev_l
      5.54237288	      1.51049708	      4.44340373	     77.60580201	      0.26031231	      0.94244732	      0.65239651	      3.39631915	     -0.75960162	      1.25565664	     19.37776130	      0.33820574	     38.30235904	      7.41955377	      0.00000000	     -4.89010218	      1.28720856	      1.24131619	      5.87974549	      0.10262092	     27.87793202	    -15.44671885	      0.00000000	     -0.19449169	      0.13147262	     -0.03096261	     -0.36119053	      0.17485859	     -0.03289778	     -0.31953040	      0.31966253	     -0.03289778	     -0.22228456	      0.31966253	     -0.02709229	     -0.18060499	      0.26809897	     -0.02515712	     -0.11113255	      0.20365109	     -0.02322196	     -1.38923472	      1.48724459	     -0.17220477	      0.00000000	      0.00000000	     10.48086226	     -0.30117560	     11.78570315	     81.82363611	     13.05217227	     28.48975887	     53.43424142	     89.32106899	    -27.89149605	     24.31956629	     69.34098527	     -8.59734683	     28.49603354	     83.30198248	     88.51680714	    -41.71612620	     -5.92025982
      5.55932203	      1.06502454	      4.43759680	     77.86072515	      0.26063600	      0.94294822	      0.65286956	      3.44365040	     -1.19221159	      1.09736545	     19.39256106	      0.33846404	     38.20706024	      7.46654924	      0.00000000	     -4.71965592	      1.68459486	      1.37488815	      5.93568563	      0.10359726	     27.48167325	    -15.44163149	      0.00000000	     -0.19606890	      0.05984378	     -0.08346676	     -0.36411955	      0.07959223	     -0.08868344	     -0.32212159	      0.14550416	     -0.08868344	     -0.22408714	      0.14550416	     -0.07303342	     -0.18206958	      0.12203343	     -0.06781674	     -0.11203377	      0.09269801	     -0.06260007	     -1.40050052	      0.67696479	     -0.46421709	      0.00000000	      0.00000000	     10.76097552	      0.63627791	     11.99058911	     79.12144384	     11.96262102	     26.28354411	     58.68273909	     89.29763846	    -27.88360432	     20.88428761	     69.10995521	     -8.52107468	     27.30469248	     82.90768142	     88.44549626	    -38.36534582	     -7.01705322
      5.57627119	      0.79965723	      4.39196618	     77.95995294	      0.26072637	      0.94364915	      0.65294777	      3.42624977	     -1.41999144	      1.26035995	     19.31029611	      0.33702825	     37.87335211	      7.38307008	      0.00000000	     -4.50940431	      1.93047900	      1.18276084	      6.13280234	      0.10703759	     27.29627072	    -15.38359744	      0.00000000	     -0.19468353	      0.01475533	     -0.09488683	     -0.36154679	      0.01962458	     -0.10081725	     -0.31984558	      0.03587610	     -0.10081725	     -0.22250381	      0.03587610	     -0.08302597	     -0.18078313	      0.03008906	     -0.07709555	     -0.11124217	      0.02285600	     -0.07116512	     -1.39060502	      0.16691519	     -0.52773207	      0.00000000	      0.00000000	     11.08034775	      1.45987684	     11.71581879	     75.93574991	     10.18382290	     24.60580866	     65.30192546	     89.24405196	    -27.98685710	     15.54543806	     68.67064944	     -7.97776068	     25.27792855	     82.35699078	     88.33964486	    -34.12663327	     -7.42056357
      5.59322034	      0.49414769	      4.35067710	     77.98220016	      0.26118183	      0.94438574	      0.65294978	      3.39382548	     -1.65895447	      1.54632346	     19.17877461	      0.33473276	     37.63018845	      7.31382554	      0.00000000	     -4.26644226	      2.18370658	      0.83144380	      6.40510973	      0.11179025	     27.12056878	    -15.10612079	      0.00000000	     -0.19531001	     -0.03769514	     -0.04400033	     -0.36271021	     -0.05013454	     -0.04675035	     -0.32087481	     -0.09165197	     -0.04675035	     -0.22321981	     -0.09165197	     -0.03850029	     -0.18136487	     -0.07686793	     -0.03575027	     -0.11160014	     -0.05838977	     -0.03300025	     -1.39507984	     -0.42641498	     -0.24471662	      0.00000000	      0.00000000	     11.58020087	      2.19357165	     11.15389129	     73.06043894	      8.29127116	     23.35140824	     71.59185829	     89.15892176	    -28.39071214	      9.52276058	     68.16792531	     -7.01409543	     22.75751348	     81.81167684	     88.13882934	    -28.51049639	     -7.31076554
      5.61016949	      0.31115706	      4.29398823	     77.96679492	      0.26136609	      0.94500734	      0.65261808	      3.32301031	     -1.81283118	      1.69380595	     18.95165004	      0.33076869	     37.45317793	      7.52325498	      0.00000000	     -4.00995095	      2.32772191	      0.31102801	      6.76363493	      0.11804770	     27.19144919	    -14.78773867	      0.00000000	     -0.18549146	     -0.06594887	      0.02635114	     -0.34447619	     -0.08771199	      0.02799809	     -0.30474392	     -0.16034807	      0.02799809	     -0.21199819	     -0.16034807	      0.02305725	     -0.17224737	     -0.13448293	      0.02141031	     -0.10598982	     -0.10215479	      0.01976336	     -1.32494694	     -0.74602675	      0.14655716	      0.00000000	      0.00000000	     11.97704536	      2.70222561	     10.57969971	     70.92468683	      6.86381180	     22.59671572	     76.36838655	     89.10847092	    -28.93031380	      5.21646535	     67.63132976	     -5.96085242	     20.62103701	     81.62003331	     87.72469406	    -24.40922768	     -6.83549813
      5.62711864	      0.20774178	      4.27085812	     77.99711665	      0.26137000	      0.94546718	      0.65232765	      3.18825967	     -1.91444194	      1.69930163	     18.64111297	      0.32534880	     37.36439572	      7.81895713	      0.00000000	     -3.77653313	      2.40296112	     -0.00640010	      7.15088394	      0.12480647	     27.35421080	    -14.71157499	      0.00000000	     -0.17421482	     -0.07596413	      0.07587618	     -0.32353434	     -0.10103229	      0.08061844	     -0.28621752	     -0.18469918	      0.08061844	     -0.19911011	     -0.18469918	      0.06639165	     -0.16177588	     -0.15490605	      0.06164939	     -0.09954635	     -0.11766843	      0.05690713	     -1.24439901	     -0.85932139	      0.42200052	      0.00000000	      0.00000000	     12.18041507	      2.98423465	     10.39772776	     69.81307330	      6.28580552	     22.44216344	     78.92951158	     89.14217258	    -29.15992449	      4.04119480	     67.17058182	     -5.19762987	     19.61275569	     81.85002940	     87.19202071	    -24.00077121	     -6.33969655
      5.64406780	      0.04646884	      4.36626667	     77.93000700	      0.26169671	      0.94576132	      0.65227104	      3.02280869	     -2.16125032	      1.27001128	     18.41391571	      0.32138346	     37.46512218	      8.64898242	      0.00000000	     -3.65104415	      2.53151671	     -0.67828517	      7.53878347	      0.13157659	     27.71716543	    -14.22183033	      0.00000000	     -0.17106199	     -0.09789550	      0.16855407	     -0.31767922	     -0.13020102	      0.17908870	     -0.28103774	     -0.23802312	      0.17908870	     -0.19550675	     -0.23802312	      0.14748481	     -0.15884816	     -0.19962851	      0.13695018	     -0.09774482	     -0.15164013	      0.12641555	     -1.22187867	     -1.10741350	      0.93744719	      0.00000000	      0.00000000	     12.28261252	      2.94170326	      9.62637645	     69.85924859	      6.30713527	     22.81135837	     78.95545108	     89.18686823	    -29.07547167	      5.95238776	     66.97433178	     -4.70317105	     19.64382633	     82.21687180	     87.18926466	    -25.36159465	     -4.81284350
      5.66101695	     -0.10706560	      4.47477996	     78.02472707	      0.26176507	      0.94594428	      0.65220865	      2.82139824	     -2.42095361	      0.72255255	     18.20053510	      0.31765926	     37.60271909	      9.41351675	      0.00000000	     -3.55010242	      2.64777964	     -1.10974434	      7.87418836	      0.13743051	     28.03974467	    -13.74372569	      0.00000000	     -0.16947182	     -0.11044151	      0.25954959	     -0.31472612	     -0.14688721	      0.27577144	     -0.27842526	     -0.26852750	      0.27577144	     -0.19368935	     -0.26852750	      0.22710589	     -0.15737153	     -0.22521234	      0.21088404	     -0.09683620	     -0.17107391	      0.19466219	     -1.21052028	     -1.24933650	      1.44353696	      0.00000000	      0.00000000	     12.32697944	      2.73205172	      9.17625949	     70.85901907	      6.93733594	     23.22401749	     76.60506254	     89.21975722	    -27.91048992	     10.54463787	     66.94832178	     -4.24854608	     20.48389047	     82.37475637	     87.29756680	    -28.92236656	     -3.31308356
      5.67796610	     -0.27869749	      4.49878562	     78.19742558	      0.26176664	      0.94592223	      0.65226285	      2.71129646	     -2.68164184	      0.06058847	     18.02345338	      0.31456860	     37.61521892	     10.06520419	      0.00000000	     -3.38285396	      2.76750641	     -1.41261117	      8.13080053	      0.14190924	     28.41292706	    -13.27280835	      0.00000000	     -0.16532630	     -0.12448067	      0.41631257	     -0.30702748	     -0.16555929	      0.44233211	     -0.27161458	     -0.30266230	      0.44233211	     -0.18895143	     -0.30266230	      0.36427350	     -0.15352200	     -0.25384098	      0.33825397	     -0.09446745	     -0.19282056	      0.31223443	     -1.18090924	     -1.40815023	      2.31540564	      0.00000000	      0.00000000	     12.32560381	      2.47737814	      8.32291440	     72.11637411	      7.42432020	     23.50662172	     73.06284839	     89.19807131	    -26.88105157	     13.61532505	     67.15663954	     -3.50314119	     22.05056473	     82.10086954	     87.36122285	    -32.97592711	     -2.18047513
